<svg xmlns="http://www.w3.org/2000/svg" width="1000.001" height="271.982" viewBox="0 0 1000.001 271.982">
  <g id="Group_9458" data-name="Group 9458" transform="translate(-2082.999 -556.657)">
    <g id="Group_9410" data-name="Group 9410" transform="translate(2349.799 637.134)">
      <path id="Path_11349" data-name="Path 11349" d="M10.62,35.094q.629,8.345,5.372,12.136t13.969,3.794a25.236,25.236,0,0,0,7.457-.949,14.272,14.272,0,0,0,4.93-2.527,9.02,9.02,0,0,0,2.719-3.731,12.992,12.992,0,0,0,.821-4.677A10.048,10.048,0,0,0,43.234,32.5q-2.658-3.1-9.734-4.488L21.745,25.868A69.341,69.341,0,0,1,9.482,22.581,28.316,28.316,0,0,1,.571,17.336a21.054,21.054,0,0,1-5.5-7.9,29.53,29.53,0,0,1-1.9-11.124A24.077,24.077,0,0,1-4.232-13.066a23.234,23.234,0,0,1,7.2-8.216,33.771,33.771,0,0,1,11.061-4.993,55.194,55.194,0,0,1,14.156-1.706,50.882,50.882,0,0,1,16.433,2.274A29.9,29.9,0,0,1,55.239-19.7a23.418,23.418,0,0,1,6.005,8.658A40.381,40.381,0,0,1,63.837-.8L46.015,1.471Q44.622-5.985,40.641-9.275T28.568-12.561a31.506,31.506,0,0,0-7.9.823A15.772,15.772,0,0,0,15.676-9.59a7.364,7.364,0,0,0-2.655,3.1,9.208,9.208,0,0,0-.757,3.663q0,5.058,2.843,7.585t9.67,3.92l12.389,2.4q14.661,2.911,21.491,9.42t6.826,18.77A26.736,26.736,0,0,1,63.269,50.2,24.394,24.394,0,0,1,56.7,58.925a31.1,31.1,0,0,1-10.937,5.814A51.211,51.211,0,0,1,30.34,66.824q-18.458,0-28.252-7.9T-8.468,35.094Z" transform="translate(8.468 27.982)" fill="#fff"/>
    </g>
    <path id="Path_11350" data-name="Path 11350" d="M0,151.325H1000V-120.657H0Z" transform="translate(2083 677.314)" fill="none"/>
    <path id="Path_11351" data-name="Path 11351" d="M154.9-83.947h18.2v15.928H154.9Zm.255,24.273h17.7V6.31h-17.7Z" transform="translate(2277.269 723.355)" fill="#fff"/>
    <g id="Group_9412" data-name="Group 9412" transform="translate(2458.79 661.656)">
      <path id="Path_11352" data-name="Path 11352" d="M11.535,40.16A12.179,12.179,0,0,0,12.986,44.2a6.9,6.9,0,0,0,2.529,2.4,10.9,10.9,0,0,0,3.792,1.2,38.944,38.944,0,0,0,5.372.316,13.929,13.929,0,0,0,7.714-1.833A11.014,11.014,0,0,0,36.5,41.424a21.693,21.693,0,0,0,1.643-6.952q.314-3.919.316-8.092V24.358a21.2,21.2,0,0,1-8.408,7.27,26.345,26.345,0,0,1-11.564,2.464q-13.91,0-20.795-8.974T-9.2.973A42.947,42.947,0,0,1-7.238-12.3,30.508,30.508,0,0,1-1.612-22.727a25.475,25.475,0,0,1,9.037-6.828A28.621,28.621,0,0,1,19.5-32.021,27.219,27.219,0,0,1,29.8-30a22.358,22.358,0,0,1,9.163,7.457L40.4-30H56.156V26.759A58.7,58.7,0,0,1,54.45,41.612a28.645,28.645,0,0,1-5.437,11.061,23.2,23.2,0,0,1-9.731,6.891,40.385,40.385,0,0,1-14.6,2.338,59.946,59.946,0,0,1-13.588-1.328A25.181,25.181,0,0,1,1.8,56.53,18.041,18.041,0,0,1-3.823,49.7,30.114,30.114,0,0,1-6.418,40.16ZM38.585.719a28.82,28.82,0,0,0-1.325-9.605,13.821,13.821,0,0,0-3.478-5.624,10.749,10.749,0,0,0-4.8-2.592,22.84,22.84,0,0,0-5.309-.633,14.977,14.977,0,0,0-5.5,1.012,11.447,11.447,0,0,0-4.553,3.287,16.571,16.571,0,0,0-3.095,5.814A27.868,27.868,0,0,0,9.384.845q0,10.5,3.983,14.853a12.878,12.878,0,0,0,9.923,4.362,19.293,19.293,0,0,0,6.129-.947,11.954,11.954,0,0,0,4.869-3.034,14.336,14.336,0,0,0,3.16-5.437A25.544,25.544,0,0,0,38.585,2.49Z" transform="translate(9.197 32.021)" fill="#fff"/>
    </g>
    <g id="Group_9413" data-name="Group 9413" transform="translate(2533.519 661.656)">
      <path id="Path_11353" data-name="Path 11353" d="M0,1.126H15.7l1.49,9.1a24.209,24.209,0,0,1,9.292-8.469A24.949,24.949,0,0,1,37.672-.9q11.249,0,16.683,5.879T59.792,23.5V67.11h-17.7V25.9q0-6.952-2.653-9.481a9.835,9.835,0,0,0-7.078-2.527,15.491,15.491,0,0,0-5.879,1.01,16.345,16.345,0,0,0-4.614,2.908A15.545,15.545,0,0,0,18.9,22.045a12.086,12.086,0,0,0-1.2,5.372V67.11H0Z" transform="translate(0 0.898)" fill="#fff"/>
    </g>
    <g id="Group_9414" data-name="Group 9414" transform="translate(2600.771 661.656)">
      <path id="Path_11354" data-name="Path 11354" d="M24.052,33.2a34.624,34.624,0,0,1-8.785,7.2Q10.4,43.184,2.692,43.183a30.384,30.384,0,0,1-8.406-1.138,19.335,19.335,0,0,1-6.954-3.539,17.229,17.229,0,0,1-4.741-6.131,20.6,20.6,0,0,1-1.77-8.913q0-6.823,3.034-11.122a20.642,20.642,0,0,1,7.962-6.7A40.007,40.007,0,0,1,2.879,2.227,101.9,101.9,0,0,1,15.333.962L23.8.583V-2.7q0-6.066-3.35-8.343a13.7,13.7,0,0,0-7.9-2.277Q2.057-13.323.541-5.359L-15.637-6.876q1.765-10.364,9.1-14.979t19.719-4.614a39.7,39.7,0,0,1,12.894,1.835,20.825,20.825,0,0,1,8.532,5.245,20.358,20.358,0,0,1,4.677,8.277A38.265,38.265,0,0,1,40.74-.176V41.539H25.675Zm-.376-21.113-7.84.381A45.285,45.285,0,0,0,6.862,13.6a15.826,15.826,0,0,0-5.248,2.211,6.578,6.578,0,0,0-2.464,3.1,11.594,11.594,0,0,0-.631,3.918A6.382,6.382,0,0,0,.8,28.014a9.58,9.58,0,0,0,6.321,1.9q6.823,0,11.122-3.16a13.919,13.919,0,0,0,3.918-4.488A13.709,13.709,0,0,0,23.676,15.5Z" transform="translate(19.178 26.469)" fill="#fff"/>
    </g>
    <g id="Group_9415" data-name="Group 9415" transform="translate(2711.004 636.879)">
      <path id="Path_11355" data-name="Path 11355" d="M33.267,34.251Q31.874,42.214,27.9,46.767T15.315,51.315a21.32,21.32,0,0,1-9.522-2.022A19.944,19.944,0,0,1-.8,43.48,29.632,29.632,0,0,1-5.746,31.634c-.081-.4-.176-.784-.248-1.2-.05-.282-.081-.582-.126-.868a61.772,61.772,0,0,1-.683-9.35,61.71,61.71,0,0,1,.683-9.346c.045-.289.077-.588.126-.87.072-.413.167-.8.248-1.2A29.632,29.632,0,0,1-.8-3.039a19.97,19.97,0,0,1,6.6-5.814,21.35,21.35,0,0,1,9.522-2.022q8.6,0,12.581,4.549T33.267,6.189l.014,0H53.491a41.739,41.739,0,0,0-3.35-13.333,32.707,32.707,0,0,0-7.459-10.619,33.422,33.422,0,0,0-11.627-7.017A46.387,46.387,0,0,0,15.064-27.31,44.466,44.466,0,0,0-2.949-23.9,35.466,35.466,0,0,0-15.971-14.29,41.339,41.339,0,0,0-23.872.689a66.9,66.9,0,0,0-2.653,19.4c0,.043,0,.083,0,.126s0,.086,0,.128a66.891,66.891,0,0,0,2.653,19.4,41.339,41.339,0,0,0,7.9,14.979A35.466,35.466,0,0,0-2.949,64.338a44.466,44.466,0,0,0,18.013,3.413,46.388,46.388,0,0,0,15.991-2.527,33.422,33.422,0,0,0,11.627-7.017,32.707,32.707,0,0,0,7.459-10.619,41.739,41.739,0,0,0,3.35-13.333H33.28Z" transform="translate(26.525 27.31)" fill="#fff"/>
    </g>
    <g id="Group_9416" data-name="Group 9416" transform="translate(2795.32 661.656)">
      <path id="Path_11356" data-name="Path 11356" d="M34.884,26.374Q33.112,37.5,25.971,43.251T5.178,49q-16.436,0-24.715-9.1t-8.277-25.788a42.742,42.742,0,0,1,2.4-14.853A31.489,31.489,0,0,1-18.651-11.8a28.412,28.412,0,0,1,10.43-6.889,36.942,36.942,0,0,1,13.4-2.34q15.168,0,22.817,8.724t7.646,23.511v7.08H-10.117q.25,7.963,4.044,12.45T5.3,35.222q10.489,0,12.389-8.848ZM18.577,6.654q0-6.823-3.35-10.617T4.8-7.756A15.623,15.623,0,0,0-1.4-6.618a13.1,13.1,0,0,0-4.488,3.1A14.1,14.1,0,0,0-8.728,1.03,17.342,17.342,0,0,0-9.866,6.654Z" transform="translate(27.814 21.029)" fill="#fff"/>
    </g>
    <g id="Group_9417" data-name="Group 9417" transform="translate(2866.988 661.656)">
      <path id="Path_11357" data-name="Path 11357" d="M0,1.126H15.166l2.029,9.1a24.187,24.187,0,0,1,9.289-8.469A24.947,24.947,0,0,1,37.669-.9q11.253,0,16.685,5.879T59.792,23.5V67.11h-17.7V25.9q0-6.952-2.653-9.481a9.838,9.838,0,0,0-7.078-2.527,15.491,15.491,0,0,0-5.879,1.01,16.345,16.345,0,0,0-4.614,2.908A15.49,15.49,0,0,0,18.9,22.045a12.057,12.057,0,0,0-1.2,5.372V67.11H0Z" transform="translate(0 0.898)" fill="#fff"/>
    </g>
    <g id="Group_9418" data-name="Group 9418" transform="translate(2977.069 662.542)">
      <path id="Path_11358" data-name="Path 11358" d="M0,.633H15.06L17.193,9.86a22.269,22.269,0,0,1,7.962-7.775A20.064,20.064,0,0,1,35.016-.5c1.684,0,4.93.189,4.93.189v16.5a31.212,31.212,0,0,0-7.459-.757,21.818,21.818,0,0,0-5.561.7,11.643,11.643,0,0,0-4.806,2.588,12.8,12.8,0,0,0-3.347,4.551A13.143,13.143,0,0,0,17.7,28.443V66.617H0Z" transform="translate(0 0.505)" fill="#fff"/>
    </g>
    <g id="Group_9419" data-name="Group 9419" transform="translate(3019.544 661.656)">
      <path id="Path_11359" data-name="Path 11359" d="M34.884,26.374Q33.115,37.5,25.971,43.251T5.178,49q-16.436,0-24.715-9.1t-8.277-25.788a42.688,42.688,0,0,1,2.4-14.853A31.451,31.451,0,0,1-18.651-11.8a28.412,28.412,0,0,1,10.43-6.889,36.942,36.942,0,0,1,13.4-2.34q15.168,0,22.817,8.724t7.646,23.511v7.08H-10.117q.25,7.963,4.044,12.45T5.3,35.222q10.492,0,12.389-8.848ZM18.577,6.654q0-6.823-3.35-10.617T4.8-7.756A15.623,15.623,0,0,0-1.4-6.618a13.1,13.1,0,0,0-4.488,3.1A14.1,14.1,0,0,0-8.728,1.03,17.342,17.342,0,0,0-9.866,6.654Z" transform="translate(27.814 21.029)" fill="#fff"/>
    </g>
    <g id="Group_9420" data-name="Group 9420" transform="translate(2936.046 640.061)">
      <path id="Path_11360" data-name="Path 11360" d="M0,14.368V-11.456H17.86V12.062H32.018V26.153H17.86V55.022a10.514,10.514,0,0,0,1.977,6.614,9.391,9.391,0,0,0,6.3,2.04h6.125V78.147H20.153q-10.259,0-15.207-5.254A21.212,21.212,0,0,1,0,58.617Z" transform="translate(0 11.456)" fill="#fff"/>
    </g>
    <path id="Path_11361" data-name="Path 11361" d="M0,151.325H1000V-120.657H0Z" transform="translate(2083 677.314)" fill="none"/>
    <path id="Path_11362" data-name="Path 11362" d="M0,5.178V95.438H17.7V-4.129Z" transform="translate(2669.108 634.226)" fill="#fff"/>
    <g id="Group_9423" data-name="Group 9423" transform="translate(2925.715 774.975)">
      <path id="Path_11363" data-name="Path 11363" d="M2.647,18.3A19.749,19.749,0,0,1-2.086,4.458q0-8.642,4.668-13.845t13.1-5.2q7.652,0,11.859,4.071A15.526,15.526,0,0,1,32.179.064H22.615A7,7,0,0,0,20.489-4.5a6.74,6.74,0,0,0-4.81-1.733Q7.6-6.238,7.6,4.453t8.077,10.692a6.888,6.888,0,0,0,4.851-1.664,7.105,7.105,0,0,0,2.159-4.493h9.555A15.3,15.3,0,0,1,27.606,19.5q-4.213,3.993-11.715,3.994Q7.394,23.5,2.647,18.3" transform="translate(2.111 14.59)" fill="#fff"/>
    </g>
    <g id="Group_9424" data-name="Group 9424" transform="translate(2965.078 775.615)">
      <path id="Path_11364" data-name="Path 11364" d="M2.037,18.829a13.014,13.014,0,0,1-3.645-9.7V-15.013h9.49V6.438q0,7.364,6.792,7.367a7.133,7.133,0,0,0,5.489-2.265,8.751,8.751,0,0,0,2.09-6.163V-15.013h9.486V21.8h-8.5l-.71-4.177h-.28A12.3,12.3,0,0,1,11.771,22.44a13.232,13.232,0,0,1-9.734-3.611" transform="translate(1.624 15.013)" fill="#fff"/>
    </g>
    <path id="Path_11365" data-name="Path 11365" d="M0,151.325H1000V-120.657H0Z" transform="translate(2083 677.314)" fill="none"/>
    <path id="Path_11366" data-name="Path 11366" d="M408.965-23.524h9.49V13.293h-9.49Z" transform="translate(2595.912 799.135)" fill="#fff"/>
    <path id="Path_11367" data-name="Path 11367" d="M408.965-21.048h9.49V-30.29h-9.49Z" transform="translate(2595.912 790.65)" fill="#fff"/>
    <g id="Group_9426" data-name="Group 9426" transform="translate(3020.669 764.012)">
      <path id="Path_11368" data-name="Path 11368" d="M.009,6.455v-11.6H9.5v11.6h8.85v8.07H9.5V30.034a5.3,5.3,0,0,0,1.132,3.785,4.848,4.848,0,0,0,3.616,1.17h4.245v8.289H11.55q-5.873,0-8.706-3.009a11.451,11.451,0,0,1-2.836-8.18Z" transform="translate(0.007 5.147)" fill="#fff"/>
    </g>
    <path id="Path_11369" data-name="Path 11369" d="M0,151.325H1000V-120.657H0Z" transform="translate(2083 677.314)" fill="none"/>
    <path id="Path_11370" data-name="Path 11370" d="M0,.4,12.529,36.358l.708,1.864L8.286,52.011v.706H18.48L37.527.4V-.306H27.33L18.552,26.6h-.284l-8.5-26.9L0-.315Z" transform="translate(3041.85 775.922)" fill="#fff"/>
    <path id="Path_11371" data-name="Path 11371" d="M3.354,0-2.674,10.444h.043l6.007,10.4-.018.038H3.4l6.005,10.4-.016.038h.043l6.01,10.4-.023.038h.045l6.01,10.4-.023.038H33.517l-6.005-10.4.018-.034h-.045l-6.01-10.4.023-.036h-.045l-6.01-10.405.023-.034H15.42l-6.01-10.4.018-.036H9.386Z" transform="translate(2894.666 759.992)" fill="#fff"/>
    <path id="Path_11372" data-name="Path 11372" d="M6.707,11.614-5.348-9.26H18.763Z" transform="translate(2885.283 800.57)" fill="#fff"/>
    <g id="Group_9431" data-name="Group 9431" transform="translate(2575.416 778.669)">
      <path id="Path_11373" data-name="Path 11373" d="M146.073.189h-5.6l8.135,15.788V24.96h5.185V15.978L161.927.189h-5.579L151.19,11.352ZM118.62,4.328h3.571a5.106,5.106,0,0,1,3.088.739,2.839,2.839,0,0,1,.978,2.421q0,3.013-3.861,3.079H118.62Zm4.677,9.846q3.52.051,3.523,3.453A2.947,2.947,0,0,1,125.806,20a4.208,4.208,0,0,1-2.815.859H118.62V14.174Zm-.153,10.786a10.27,10.27,0,0,0,6.5-1.871,6.537,6.537,0,0,0,2.281-5.41,5.673,5.673,0,0,0-1.1-3.537,5.217,5.217,0,0,0-3-1.925,5.4,5.4,0,0,0,2.606-2.033,5.6,5.6,0,0,0,.935-3.205,5.912,5.912,0,0,0-2.331-5.061Q126.7.194,122.19.189h-8.676V24.96ZM75.883,4.328a5.528,5.528,0,0,1,4.578,1.945A9,9,0,0,1,82.023,12v1.31a8.835,8.835,0,0,1-1.614,5.6,5.546,5.546,0,0,1-4.578,1.957H73.365V4.328ZM75.93,24.96a11.653,11.653,0,0,0,5.836-1.5A10.148,10.148,0,0,0,85.774,19.3a12.907,12.907,0,0,0,1.42-6.14V12.015a12.888,12.888,0,0,0-1.447-6.167,10.294,10.294,0,0,0-4.019-4.186A11.612,11.612,0,0,0,75.883.189H68.262V24.96ZM55.458,10.227h-9.8v-5.9H57.126V.189H40.556V24.96H57.162v-4.1h-11.5V14.226h9.8Zm-39.775-5.9h4.1a4.143,4.143,0,0,1,3.059,1,3.756,3.756,0,0,1,.992,2.757,3.5,3.5,0,0,1-1.055,2.7,4.2,4.2,0,0,1-2.978.978H15.683Zm8.71,20.632h5.48v-.239L24.513,14.6a7.5,7.5,0,0,0,3.327-2.7,7.629,7.629,0,0,0,1.1-4.229,6.733,6.733,0,0,0-2.38-5.525Q24.168.189,19.781.189h-9.2V24.96h5.1V15.894h4.069ZM-2.224,10.227h-9.8v-5.9H-.556V.189h-16.57V24.96h16.6v-4.1h-11.5V14.226h9.8ZM-40.027.189h-4.319L-48.43,17.779-51.78.189h-5.088l5.5,24.771h5.135L-42.2,8.39l4.033,16.57h5.14L-27.541.189h-5.085l-3.332,17.625ZM-71.233,13.225a10.507,10.507,0,0,1-1.4,5.874,4.492,4.492,0,0,1-3.947,2.015,4.536,4.536,0,0,1-4.015-2.09,10.577,10.577,0,0,1-1.393-5.888V11.931a10.328,10.328,0,0,1,1.411-5.863,4.548,4.548,0,0,1,3.963-2A4.544,4.544,0,0,1-72.631,6.1a10.414,10.414,0,0,1,1.4,5.919Zm5.169-1.195a14.8,14.8,0,0,0-1.319-6.418,9.828,9.828,0,0,0-3.724-4.274,10.268,10.268,0,0,0-5.5-1.49,10.249,10.249,0,0,0-5.5,1.49A9.833,9.833,0,0,0-85.84,5.613a14.843,14.843,0,0,0-1.321,6.436v1.224a14.55,14.55,0,0,0,1.346,6.318,9.821,9.821,0,0,0,3.742,4.229,10.289,10.289,0,0,0,5.5,1.481,10.257,10.257,0,0,0,5.523-1.5,9.737,9.737,0,0,0,3.7-4.251,14.938,14.938,0,0,0,1.294-6.415Zm-45.3-7.7h4.677a3.994,3.994,0,0,1,2.962,1.154,4.081,4.081,0,0,1,1.071,2.944,3.474,3.474,0,0,1-1.062,2.721,4.491,4.491,0,0,1-3.088.954h-4.56Zm4.475,11.907a10.4,10.4,0,0,0,6.9-2.1A7.128,7.128,0,0,0-97.5,8.39a8.1,8.1,0,0,0-1.136-4.276,7.526,7.526,0,0,0-3.262-2.9A11.193,11.193,0,0,0-106.806.189h-9.664V24.96h5.1V16.235Z" transform="translate(116.47 0.151)" fill="#fff"/>
    </g>
    <g id="Group_9432" data-name="Group 9432" transform="translate(2925.715 774.975)">
      <path id="Path_11374" data-name="Path 11374" d="M2.647,18.3A19.749,19.749,0,0,1-2.086,4.458q0-8.642,4.668-13.845t13.1-5.2q7.652,0,11.859,4.071A15.526,15.526,0,0,1,32.179.064H22.615A7,7,0,0,0,20.489-4.5a6.74,6.74,0,0,0-4.81-1.733Q7.6-6.238,7.6,4.453t8.077,10.692a6.888,6.888,0,0,0,4.851-1.664,7.105,7.105,0,0,0,2.159-4.493h9.555A15.3,15.3,0,0,1,27.606,19.5q-4.213,3.993-11.715,3.994Q7.394,23.5,2.647,18.3" transform="translate(2.111 14.59)" fill="#fff"/>
    </g>
    <g id="Group_9433" data-name="Group 9433" transform="translate(2965.078 775.615)">
      <path id="Path_11375" data-name="Path 11375" d="M2.037,18.829a13.014,13.014,0,0,1-3.645-9.7V-15.013h9.49V6.438q0,7.364,6.792,7.367a7.133,7.133,0,0,0,5.489-2.265,8.751,8.751,0,0,0,2.09-6.163V-15.013h9.486V21.8h-8.5l-.71-4.177h-.28A12.3,12.3,0,0,1,11.771,22.44a13.232,13.232,0,0,1-9.734-3.611" transform="translate(1.624 15.013)" fill="#fff"/>
    </g>
    <path id="Path_11376" data-name="Path 11376" d="M0,151.325H1000V-120.657H0Z" transform="translate(2083 677.314)" fill="none"/>
    <path id="Path_11377" data-name="Path 11377" d="M408.965-23.524h9.49V13.293h-9.49Z" transform="translate(2595.912 799.135)" fill="#fff"/>
    <path id="Path_11378" data-name="Path 11378" d="M408.965-21.048h9.49V-30.29h-9.49Z" transform="translate(2595.912 790.65)" fill="#fff"/>
    <g id="Group_9435" data-name="Group 9435" transform="translate(3020.669 764.012)">
      <path id="Path_11379" data-name="Path 11379" d="M.009,6.455v-11.6H9.5v11.6h8.85v8.07H9.5V30.034a5.3,5.3,0,0,0,1.132,3.785,4.848,4.848,0,0,0,3.616,1.17h4.245v8.289H11.55q-5.873,0-8.706-3.009a11.451,11.451,0,0,1-2.836-8.18Z" transform="translate(0.007 5.147)" fill="#fff"/>
    </g>
    <path id="Path_11380" data-name="Path 11380" d="M0,151.325H1000V-120.657H0Z" transform="translate(2083 677.314)" fill="none"/>
    <path id="Path_11381" data-name="Path 11381" d="M0,.4,12.529,36.358l.708,1.864L8.286,52.011v.706H18.48L37.527.4V-.306H27.33L18.552,26.6h-.284l-8.5-26.9L0-.315Z" transform="translate(3041.85 775.922)" fill="#fff"/>
    <path id="Path_11382" data-name="Path 11382" d="M3.354,0-2.674,10.444h.043l6.007,10.4-.018.038H3.4l6.005,10.4-.016.038h.043l6.01,10.4-.023.038h.045l6.01,10.4-.023.038H33.517l-6.005-10.4.018-.034h-.045l-6.01-10.4.023-.036h-.045l-6.01-10.405.023-.034H15.42l-6.01-10.4.018-.036H9.386Z" transform="translate(2894.666 759.992)" fill="#fff"/>
    <path id="Path_11383" data-name="Path 11383" d="M6.707,11.614-5.348-9.26H18.763Z" transform="translate(2885.283 800.57)" fill="#fff"/>
    <g id="Group_9440" data-name="Group 9440" transform="translate(2575.416 778.669)">
      <path id="Path_11384" data-name="Path 11384" d="M146.073.189h-5.6l8.135,15.788V24.96h5.185V15.978L161.927.189h-5.579L151.19,11.352ZM118.62,4.328h3.571a5.106,5.106,0,0,1,3.088.739,2.839,2.839,0,0,1,.978,2.421q0,3.013-3.861,3.079H118.62Zm4.677,9.846q3.52.051,3.523,3.453A2.947,2.947,0,0,1,125.806,20a4.208,4.208,0,0,1-2.815.859H118.62V14.174Zm-.153,10.786a10.27,10.27,0,0,0,6.5-1.871,6.537,6.537,0,0,0,2.281-5.41,5.673,5.673,0,0,0-1.1-3.537,5.217,5.217,0,0,0-3-1.925,5.4,5.4,0,0,0,2.606-2.033,5.6,5.6,0,0,0,.935-3.205,5.912,5.912,0,0,0-2.331-5.061Q126.7.194,122.19.189h-8.676V24.96ZM75.883,4.328a5.528,5.528,0,0,1,4.578,1.945A9,9,0,0,1,82.023,12v1.31a8.835,8.835,0,0,1-1.614,5.6,5.546,5.546,0,0,1-4.578,1.957H73.365V4.328ZM75.93,24.96a11.653,11.653,0,0,0,5.836-1.5A10.148,10.148,0,0,0,85.774,19.3a12.907,12.907,0,0,0,1.42-6.14V12.015a12.888,12.888,0,0,0-1.447-6.167,10.294,10.294,0,0,0-4.019-4.186A11.612,11.612,0,0,0,75.883.189H68.262V24.96ZM55.458,10.227h-9.8v-5.9H57.126V.189H40.556V24.96H57.162v-4.1h-11.5V14.226h9.8Zm-39.775-5.9h4.1a4.143,4.143,0,0,1,3.059,1,3.756,3.756,0,0,1,.992,2.757,3.5,3.5,0,0,1-1.055,2.7,4.2,4.2,0,0,1-2.978.978H15.683Zm8.71,20.632h5.48v-.239L24.513,14.6a7.5,7.5,0,0,0,3.327-2.7,7.629,7.629,0,0,0,1.1-4.229,6.733,6.733,0,0,0-2.38-5.525Q24.168.189,19.781.189h-9.2V24.96h5.1V15.894h4.069ZM-2.224,10.227h-9.8v-5.9H-.556V.189h-16.57V24.96h16.6v-4.1h-11.5V14.226h9.8ZM-40.027.189h-4.319L-48.43,17.779-51.78.189h-5.088l5.5,24.771h5.135L-42.2,8.39l4.033,16.57h5.14L-27.541.189h-5.085l-3.332,17.625ZM-71.233,13.225a10.507,10.507,0,0,1-1.4,5.874,4.492,4.492,0,0,1-3.947,2.015,4.536,4.536,0,0,1-4.015-2.09,10.577,10.577,0,0,1-1.393-5.888V11.931a10.328,10.328,0,0,1,1.411-5.863,4.548,4.548,0,0,1,3.963-2A4.544,4.544,0,0,1-72.631,6.1a10.414,10.414,0,0,1,1.4,5.919Zm5.169-1.195a14.8,14.8,0,0,0-1.319-6.418,9.828,9.828,0,0,0-3.724-4.274,10.268,10.268,0,0,0-5.5-1.49,10.249,10.249,0,0,0-5.5,1.49A9.833,9.833,0,0,0-85.84,5.613a14.843,14.843,0,0,0-1.321,6.436v1.224a14.55,14.55,0,0,0,1.346,6.318,9.821,9.821,0,0,0,3.742,4.229,10.289,10.289,0,0,0,5.5,1.481,10.257,10.257,0,0,0,5.523-1.5,9.737,9.737,0,0,0,3.7-4.251,14.938,14.938,0,0,0,1.294-6.415Zm-45.3-7.7h4.677a3.994,3.994,0,0,1,2.962,1.154,4.081,4.081,0,0,1,1.071,2.944,3.474,3.474,0,0,1-1.062,2.721,4.491,4.491,0,0,1-3.088.954h-4.56Zm4.475,11.907a10.4,10.4,0,0,0,6.9-2.1A7.128,7.128,0,0,0-97.5,8.39a8.1,8.1,0,0,0-1.136-4.276,7.526,7.526,0,0,0-3.262-2.9A11.193,11.193,0,0,0-106.806.189h-9.664V24.96h5.1V16.235Z" transform="translate(116.47 0.151)" fill="#fff"/>
    </g>
    <g id="Group_9441" data-name="Group 9441" transform="translate(2349.799 637.134)">
      <path id="Path_11385" data-name="Path 11385" d="M10.62,35.094q.629,8.345,5.372,12.136t13.969,3.794a25.236,25.236,0,0,0,7.457-.949,14.272,14.272,0,0,0,4.93-2.527,9.02,9.02,0,0,0,2.719-3.731,12.992,12.992,0,0,0,.821-4.677A10.048,10.048,0,0,0,43.234,32.5q-2.658-3.1-9.734-4.488L21.745,25.868A69.341,69.341,0,0,1,9.482,22.581,28.316,28.316,0,0,1,.571,17.336a21.054,21.054,0,0,1-5.5-7.9,29.53,29.53,0,0,1-1.9-11.124A24.077,24.077,0,0,1-4.232-13.066a23.234,23.234,0,0,1,7.2-8.216,33.771,33.771,0,0,1,11.061-4.993,55.194,55.194,0,0,1,14.156-1.706,50.882,50.882,0,0,1,16.433,2.274A29.9,29.9,0,0,1,55.239-19.7a23.418,23.418,0,0,1,6.005,8.658A40.381,40.381,0,0,1,63.837-.8L46.015,1.471Q44.622-5.985,40.641-9.275T28.568-12.561a31.506,31.506,0,0,0-7.9.823A15.772,15.772,0,0,0,15.676-9.59a7.364,7.364,0,0,0-2.655,3.1,9.208,9.208,0,0,0-.757,3.663q0,5.058,2.843,7.585t9.67,3.92l12.389,2.4q14.661,2.911,21.491,9.42t6.826,18.77A26.736,26.736,0,0,1,63.269,50.2,24.394,24.394,0,0,1,56.7,58.925a31.1,31.1,0,0,1-10.937,5.814A51.211,51.211,0,0,1,30.34,66.824q-18.458,0-28.252-7.9T-8.468,35.094Z" transform="translate(8.468 27.982)" fill="#fff"/>
    </g>
    <path id="Path_11386" data-name="Path 11386" d="M0,151.325H1000V-120.657H0Z" transform="translate(2083 677.314)" fill="none"/>
    <path id="Path_11387" data-name="Path 11387" d="M154.9-83.947h18.2v15.928H154.9Zm.255,24.273h17.7V6.31h-17.7Z" transform="translate(2277.269 723.355)" fill="#fff"/>
    <g id="Group_9443" data-name="Group 9443" transform="translate(2458.79 661.656)">
      <path id="Path_11388" data-name="Path 11388" d="M11.535,40.16A12.179,12.179,0,0,0,12.986,44.2a6.9,6.9,0,0,0,2.529,2.4,10.9,10.9,0,0,0,3.792,1.2,38.944,38.944,0,0,0,5.372.316,13.929,13.929,0,0,0,7.714-1.833A11.014,11.014,0,0,0,36.5,41.424a21.693,21.693,0,0,0,1.643-6.952q.314-3.919.316-8.092V24.358a21.2,21.2,0,0,1-8.408,7.27,26.345,26.345,0,0,1-11.564,2.464q-13.91,0-20.795-8.974T-9.2.973A42.947,42.947,0,0,1-7.238-12.3,30.508,30.508,0,0,1-1.612-22.727a25.475,25.475,0,0,1,9.037-6.828A28.621,28.621,0,0,1,19.5-32.021,27.219,27.219,0,0,1,29.8-30a22.358,22.358,0,0,1,9.163,7.457L40.4-30H56.156V26.759A58.7,58.7,0,0,1,54.45,41.612a28.645,28.645,0,0,1-5.437,11.061,23.2,23.2,0,0,1-9.731,6.891,40.385,40.385,0,0,1-14.6,2.338,59.946,59.946,0,0,1-13.588-1.328A25.181,25.181,0,0,1,1.8,56.53,18.041,18.041,0,0,1-3.823,49.7,30.114,30.114,0,0,1-6.418,40.16ZM38.585.719a28.82,28.82,0,0,0-1.325-9.605,13.821,13.821,0,0,0-3.478-5.624,10.749,10.749,0,0,0-4.8-2.592,22.84,22.84,0,0,0-5.309-.633,14.977,14.977,0,0,0-5.5,1.012,11.447,11.447,0,0,0-4.553,3.287,16.571,16.571,0,0,0-3.095,5.814A27.868,27.868,0,0,0,9.384.845q0,10.5,3.983,14.853a12.878,12.878,0,0,0,9.923,4.362,19.293,19.293,0,0,0,6.129-.947,11.954,11.954,0,0,0,4.869-3.034,14.336,14.336,0,0,0,3.16-5.437A25.544,25.544,0,0,0,38.585,2.49Z" transform="translate(9.197 32.021)" fill="#fff"/>
    </g>
    <g id="Group_9444" data-name="Group 9444" transform="translate(2533.519 661.656)">
      <path id="Path_11389" data-name="Path 11389" d="M0,1.126H15.7l1.49,9.1a24.209,24.209,0,0,1,9.292-8.469A24.949,24.949,0,0,1,37.672-.9q11.249,0,16.683,5.879T59.792,23.5V67.11h-17.7V25.9q0-6.952-2.653-9.481a9.835,9.835,0,0,0-7.078-2.527,15.491,15.491,0,0,0-5.879,1.01,16.345,16.345,0,0,0-4.614,2.908A15.545,15.545,0,0,0,18.9,22.045a12.086,12.086,0,0,0-1.2,5.372V67.11H0Z" transform="translate(0 0.898)" fill="#fff"/>
    </g>
    <g id="Group_9445" data-name="Group 9445" transform="translate(2600.771 661.656)">
      <path id="Path_11390" data-name="Path 11390" d="M24.052,33.2a34.624,34.624,0,0,1-8.785,7.2Q10.4,43.184,2.692,43.183a30.384,30.384,0,0,1-8.406-1.138,19.335,19.335,0,0,1-6.954-3.539,17.229,17.229,0,0,1-4.741-6.131,20.6,20.6,0,0,1-1.77-8.913q0-6.823,3.034-11.122a20.642,20.642,0,0,1,7.962-6.7A40.007,40.007,0,0,1,2.879,2.227,101.9,101.9,0,0,1,15.333.962L23.8.583V-2.7q0-6.066-3.35-8.343a13.7,13.7,0,0,0-7.9-2.277Q2.057-13.323.541-5.359L-15.637-6.876q1.765-10.364,9.1-14.979t19.719-4.614a39.7,39.7,0,0,1,12.894,1.835,20.825,20.825,0,0,1,8.532,5.245,20.358,20.358,0,0,1,4.677,8.277A38.265,38.265,0,0,1,40.74-.176V41.539H25.675Zm-.376-21.113-7.84.381A45.285,45.285,0,0,0,6.862,13.6a15.826,15.826,0,0,0-5.248,2.211,6.578,6.578,0,0,0-2.464,3.1,11.594,11.594,0,0,0-.631,3.918A6.382,6.382,0,0,0,.8,28.014a9.58,9.58,0,0,0,6.321,1.9q6.823,0,11.122-3.16a13.919,13.919,0,0,0,3.918-4.488A13.709,13.709,0,0,0,23.676,15.5Z" transform="translate(19.178 26.469)" fill="#fff"/>
    </g>
    <g id="Group_9446" data-name="Group 9446" transform="translate(2711.004 636.879)">
      <path id="Path_11391" data-name="Path 11391" d="M33.267,34.251Q31.874,42.214,27.9,46.767T15.315,51.315a21.32,21.32,0,0,1-9.522-2.022A19.944,19.944,0,0,1-.8,43.48,29.632,29.632,0,0,1-5.746,31.634c-.081-.4-.176-.784-.248-1.2-.05-.282-.081-.582-.126-.868a61.772,61.772,0,0,1-.683-9.35,61.71,61.71,0,0,1,.683-9.346c.045-.289.077-.588.126-.87.072-.413.167-.8.248-1.2A29.632,29.632,0,0,1-.8-3.039a19.97,19.97,0,0,1,6.6-5.814,21.35,21.35,0,0,1,9.522-2.022q8.6,0,12.581,4.549T33.267,6.189l.014,0H53.491a41.739,41.739,0,0,0-3.35-13.333,32.707,32.707,0,0,0-7.459-10.619,33.422,33.422,0,0,0-11.627-7.017A46.387,46.387,0,0,0,15.064-27.31,44.466,44.466,0,0,0-2.949-23.9,35.466,35.466,0,0,0-15.971-14.29,41.339,41.339,0,0,0-23.872.689a66.9,66.9,0,0,0-2.653,19.4c0,.043,0,.083,0,.126s0,.086,0,.128a66.891,66.891,0,0,0,2.653,19.4,41.339,41.339,0,0,0,7.9,14.979A35.466,35.466,0,0,0-2.949,64.338a44.466,44.466,0,0,0,18.013,3.413,46.388,46.388,0,0,0,15.991-2.527,33.422,33.422,0,0,0,11.627-7.017,32.707,32.707,0,0,0,7.459-10.619,41.739,41.739,0,0,0,3.35-13.333H33.28Z" transform="translate(26.525 27.31)" fill="#fff"/>
    </g>
    <g id="Group_9447" data-name="Group 9447" transform="translate(2795.32 661.656)">
      <path id="Path_11392" data-name="Path 11392" d="M34.884,26.374Q33.112,37.5,25.971,43.251T5.178,49q-16.436,0-24.715-9.1t-8.277-25.788a42.742,42.742,0,0,1,2.4-14.853A31.489,31.489,0,0,1-18.651-11.8a28.412,28.412,0,0,1,10.43-6.889,36.942,36.942,0,0,1,13.4-2.34q15.168,0,22.817,8.724t7.646,23.511v7.08H-10.117q.25,7.963,4.044,12.45T5.3,35.222q10.489,0,12.389-8.848ZM18.577,6.654q0-6.823-3.35-10.617T4.8-7.756A15.623,15.623,0,0,0-1.4-6.618a13.1,13.1,0,0,0-4.488,3.1A14.1,14.1,0,0,0-8.728,1.03,17.342,17.342,0,0,0-9.866,6.654Z" transform="translate(27.814 21.029)" fill="#fff"/>
    </g>
    <g id="Group_9448" data-name="Group 9448" transform="translate(2866.988 661.656)">
      <path id="Path_11393" data-name="Path 11393" d="M0,1.126H15.166l2.029,9.1a24.187,24.187,0,0,1,9.289-8.469A24.947,24.947,0,0,1,37.669-.9q11.253,0,16.685,5.879T59.792,23.5V67.11h-17.7V25.9q0-6.952-2.653-9.481a9.838,9.838,0,0,0-7.078-2.527,15.491,15.491,0,0,0-5.879,1.01,16.345,16.345,0,0,0-4.614,2.908A15.49,15.49,0,0,0,18.9,22.045a12.057,12.057,0,0,0-1.2,5.372V67.11H0Z" transform="translate(0 0.898)" fill="#fff"/>
    </g>
    <g id="Group_9449" data-name="Group 9449" transform="translate(2977.069 662.542)">
      <path id="Path_11394" data-name="Path 11394" d="M0,.633H15.06L17.193,9.86a22.269,22.269,0,0,1,7.962-7.775A20.064,20.064,0,0,1,35.016-.5c1.684,0,4.93.189,4.93.189v16.5a31.212,31.212,0,0,0-7.459-.757,21.818,21.818,0,0,0-5.561.7,11.643,11.643,0,0,0-4.806,2.588,12.8,12.8,0,0,0-3.347,4.551A13.143,13.143,0,0,0,17.7,28.443V66.617H0Z" transform="translate(0 0.505)" fill="#fff"/>
    </g>
    <g id="Group_9450" data-name="Group 9450" transform="translate(3019.544 661.656)">
      <path id="Path_11395" data-name="Path 11395" d="M34.884,26.374Q33.115,37.5,25.971,43.251T5.178,49q-16.436,0-24.715-9.1t-8.277-25.788a42.688,42.688,0,0,1,2.4-14.853A31.451,31.451,0,0,1-18.651-11.8a28.412,28.412,0,0,1,10.43-6.889,36.942,36.942,0,0,1,13.4-2.34q15.168,0,22.817,8.724t7.646,23.511v7.08H-10.117q.25,7.963,4.044,12.45T5.3,35.222q10.492,0,12.389-8.848ZM18.577,6.654q0-6.823-3.35-10.617T4.8-7.756A15.623,15.623,0,0,0-1.4-6.618a13.1,13.1,0,0,0-4.488,3.1A14.1,14.1,0,0,0-8.728,1.03,17.342,17.342,0,0,0-9.866,6.654Z" transform="translate(27.814 21.029)" fill="#fff"/>
    </g>
    <g id="Group_9451" data-name="Group 9451" transform="translate(2936.046 640.061)">
      <path id="Path_11396" data-name="Path 11396" d="M0,14.368V-11.456H17.86V12.062H32.018V26.153H17.86V55.022a10.514,10.514,0,0,0,1.977,6.614,9.391,9.391,0,0,0,6.3,2.04h6.125V78.147H20.153q-10.259,0-15.207-5.254A21.212,21.212,0,0,1,0,58.617Z" transform="translate(0 11.456)" fill="#fff"/>
    </g>
    <path id="Path_11397" data-name="Path 11397" d="M0,151.325H1000V-120.657H0Z" transform="translate(2083 677.314)" fill="none"/>
    <path id="Path_11398" data-name="Path 11398" d="M0,5.178V95.438H17.7V-4.129Z" transform="translate(2669.108 634.226)" fill="#fff"/>
    <g id="Group_9454" data-name="Group 9454" transform="translate(2082.999 556.657)">
      <path id="Path_11399" data-name="Path 11399" d="M155.507,0l9.111,15.779L81.776,63.493l-97.022-55.9a6.059,6.059,0,0,0-6.064,0l-99.652,57.65a6.069,6.069,0,0,0-3.03,5.252l.1,115.13a6.064,6.064,0,0,0,3.036,5.248L-21.1,248.351a6.021,6.021,0,0,0,3.027.812,6.065,6.065,0,0,0,3.036-.816L84.616,190.7a6.059,6.059,0,0,0,3.027-5.252l-.1-111.277,83.136-47.883L179.5,41.551,203.485,0ZM69.63,70.49l-88.467,50.956-29.859-17.4a6.064,6.064,0,0,0-5.978-.072l-57.132,31.468-.054-61.449,93.593-54.145Zm5.883,111.464L-18.08,236.1l-93.686-53.978-.029-32.841,59.961-33.026L-21.91,133.69a6.061,6.061,0,0,0,6.079.018L75.426,81.148Z" transform="translate(123.992)" fill="#36f"/>
    </g>
    <path id="Path_11400" data-name="Path 11400" d="M0,151.325H1000V-120.657H0Z" transform="translate(2083 677.314)" fill="none"/>
  </g>
</svg>
