<svg id="图层_1" data-name="图层 1" xmlns="http://www.w3.org/2000/svg" viewBox="0 0 90.31 59.91"><defs><style>.cls-1{fill:none;}.cls-2{fill:#1a3067;}.cls-3{fill:#fff;}.cls-4{fill:#e7211a;}</style></defs><title>英国</title><rect class="cls-1" width="90" height="59.91"/><rect class="cls-2" y="0.15" width="90.26" height="59.59"/><polygon class="cls-3" points="37.63 0.1 52.68 0.1 52.68 20.37 90.31 19.78 90.31 39.46 52.68 40.05 52.68 59.73 37.63 59.73 37.63 40.05 0 39.46 0 19.78 37.63 20.37 37.63 0.1"/><polygon class="cls-3" points="0 0.1 10.1 0.69 90.31 53.13 90.31 59.13 80.21 59.73 0 6.7 0 0.1"/><polygon class="cls-3" points="90.31 0.1 80.21 0.69 0 53.13 0 59.13 10.1 59.73 90.31 6.7 90.31 0.1"/><polygon class="cls-4" points="40.64 0.1 49.67 0.1 49.67 24.31 90.31 23.72 90.31 35.52 49.67 36.11 49.67 59.73 40.64 59.73 40.64 36.11 0 35.52 0 23.72 40.64 24.31 40.64 0.1"/><path class="cls-4" d="M4.76,20.15l30.1,20.27H28.13L4.76,24.55Zm90.31,0H88.33L58.23,40.42H65Z" transform="translate(-4.76 -20.04)"/><path class="cls-4" d="M95.07,79.18,65,60.09h6.73L95.07,74.78Zm-90.31,0,6.73.59,30.1-19.68H34.86Z" transform="translate(-4.76 -20.04)"/></svg>